# xmcd
#
# Track frame offsets: 
#        150
#        16285
#        36113
#        56173
#        74079
#        101231
#        116922
#        137205
#        172701
#        193824
#
# Disc length: 3013 seconds
#
# Revision: 0
# Processed by: cddbd v1.5.2PL0 Copyright (c) Steve Scherf et al.
# Submitted via: ExactAudioCopy v0.99pb5
#
DISCID=960bc30a
DTITLE=Slaska Grupa Bluesowa - Kolory bluesa
DYEAR=2014
DGENRE=Blues
TTITLE0=01.Kolory bluesa
TTITLE1=02.Sprzedac mozna prawie wszystko
TTITLE2=03.Nie zapomna bluesa
TTITLE3=04.Chachor
TTITLE4=05.Bogactwo widzi nawet slepiec
TTITLE5=06.Sztyl od kilofa
TTITLE6=07.O malym Jasiu
TTITLE7=08.Zaklety w klawisze
TTITLE8=09.Mala szafirowa karbidka
TTITLE9=10.Ostatni blues
EXTD=
EXTT0=
EXTT1=
EXTT2=
EXTT3=
EXTT4=
EXTT5=
EXTT6=
EXTT7=
EXTT8=
EXTT9=
PLAYORDER=
